<!DOCTYPE svg PUBLIC "-//W3C//DTD SVG 20010904//EN" "http://www.w3.org/TR/2001/REC-SVG-20010904/DTD/svg10.dtd">
<svg version="1.0" xmlns="http://www.w3.org/2000/svg" width="1200px" height="218px" viewBox="0 0 12000 2180" preserveAspectRatio="xMidYMid meet">
<g id="layer101" fill="#000000" stroke="none">
</g>
<g id="layer102" fill="#427541" stroke="none">
<path d="M60 2056 c0 -3 118 -188 262 -413 143 -224 307 -480 363 -568 116 -182 326 -510 465 -727 l95 -148 113 0 c61 0 112 2 112 4 0 5 -111 188 -401 666 -96 157 -298 489 -449 738 l-274 452 -143 0 c-79 0 -143 -2 -143 -4z"/>
<path d="M684 2044 c7 -17 112 -201 788 -1379 l263 -459 40 -8 40 -9 80 3 81 3 -214 395 c-218 404 -286 529 -597 1105 -98 182 -183 336 -189 342 l-11 12 -144 7 -144 7 7 -19z"/>
<path d="M1290 2044 c0 -3 29 -61 64 -128 35 -66 166 -323 292 -571 125 -247 308 -607 405 -800 l178 -350 53 -8 53 -8 67 3 68 3 -335 705 c-185 388 -384 806 -443 930 l-108 225 -147 3 -147 3 0 -7z"/>
<path d="M1920 2038 c0 -5 50 -123 111 -261 62 -139 197 -445 302 -682 104 -236 237 -538 296 -670 l107 -240 94 -8 c52 -4 107 -6 121 -5 l26 3 -172 420 c-95 231 -265 647 -378 924 -114 278 -210 508 -214 512 l-8 7 -142 4 -143 5 0 -9z"/>
<path d="M2544 2004 c8 -22 118 -316 245 -654 128 -338 280 -742 338 -898 l106 -282 92 0 c51 0 106 -3 123 -6 l30 -6 -78 228 c-80 235 -253 741 -449 1313 -61 178 -114 327 -117 330 l-6 6 -149 4 -149 3 14 -38z"/>
<path d="M3170 2026 c0 -4 81 -268 492 -1602 l81 -261 120 -6 c67 -3 122 -5 123 -4 1 1 -43 164 -97 362 -172 625 -217 791 -317 1155 l-97 355 -153 3 c-83 1 -152 0 -152 -2z"/>
<path d="M3795 2003 c11 -43 158 -648 225 -928 33 -137 97 -402 142 -588 l82 -337 122 0 122 0 -29 138 c-45 213 -106 508 -149 717 -22 105 -59 287 -84 405 -25 118 -63 302 -85 409 -22 106 -41 195 -43 196 -2 1 -72 5 -157 9 l-153 7 7 -28z"/>
<path d="M4434 1998 c10 -47 27 -139 60 -338 20 -113 65 -376 101 -585 36 -209 84 -483 105 -610 22 -126 43 -250 48 -275 l8 -45 123 -3 123 -3 -7 53 c-3 29 -17 130 -30 223 -14 94 -38 271 -55 395 -17 124 -39 286 -50 360 -17 119 -72 517 -100 730 -6 41 -13 85 -16 98 l-4 22 -155 0 -155 0 4 -22z"/>
<path d="M5070 1989 c0 -12 18 -193 40 -403 117 -1116 150 -1429 150 -1442 l0 -14 126 0 126 0 -6 77 c-3 43 -10 148 -16 233 -6 85 -15 211 -20 280 -5 69 -26 357 -45 640 -19 283 -38 544 -42 580 l-8 65 -152 3 -153 3 0 -22z"/>
<path d="M5716 1949 c2 -35 11 -271 20 -524 8 -253 21 -640 29 -860 8 -220 15 -410 15 -422 l0 -23 125 0 125 0 0 934 0 935 -10 6 c-5 3 -77 9 -159 12 l-149 6 4 -64z"/>
<path d="M6346 1858 c-8 -191 -56 -1652 -56 -1705 l0 -43 124 0 124 0 6 68 c4 37 25 335 46 662 49 734 58 862 70 1019 l9 125 -5 8 -5 8 -154 0 -153 0 -6 -142z"/>
<path d="M7006 1973 c-2 -10 -7 -45 -10 -78 -8 -80 -51 -505 -76 -735 -11 -102 -26 -252 -35 -335 -16 -157 -35 -343 -60 -580 -8 -77 -15 -141 -15 -143 0 -1 57 -1 127 0 l127 3 13 85 c7 47 28 202 48 345 20 143 47 337 60 430 13 94 38 274 56 400 17 127 44 316 59 420 15 105 25 193 23 198 l-4 7 -154 0 -154 0 -5 -17z"/>
<path d="M7656 1979 c-3 -8 -30 -158 -61 -334 -30 -176 -68 -396 -85 -490 -17 -93 -55 -314 -85 -490 -31 -176 -65 -369 -75 -429 -11 -60 -20 -118 -20 -128 l0 -18 124 0 124 0 7 28 c4 15 22 101 40 192 19 91 59 284 90 430 31 146 69 328 85 405 16 77 48 228 70 335 23 107 54 260 71 339 l29 145 -7 7 -8 7 -147 8 -148 7 -4 -14z"/>
<path d="M8315 1968 c-3 -7 -20 -78 -39 -158 -19 -80 -89 -363 -155 -630 -65 -267 -151 -617 -191 -778 l-72 -293 6 -14 5 -15 119 0 118 0 264 937 c144 516 263 943 264 948 l1 10 -158 3 -157 3 -5 -13z"/>
<path d="M8965 1958 c-13 -38 -104 -326 -175 -553 -45 -143 -110 -350 -145 -460 -183 -573 -265 -838 -265 -849 l0 -13 38 -7 c40 -6 212 -8 212 -2 0 2 39 113 86 247 47 134 114 325 148 424 35 99 107 304 161 455 53 151 134 382 181 514 l84 238 -6 9 -5 9 -155 0 -155 0 -4 -12z"/>
<path d="M9491 1578 c-85 -216 -195 -501 -247 -633 -51 -132 -147 -379 -213 -550 -67 -170 -121 -315 -121 -322 l0 -13 126 0 125 0 18 42 c10 24 62 144 114 268 89 209 453 1067 589 1385 70 164 82 195 77 199 -2 2 -74 6 -160 10 l-155 7 -153 -393z"/>
<path d="M10257 1863 c-25 -54 -179 -388 -342 -743 -163 -355 -339 -737 -391 -849 -52 -112 -93 -205 -92 -207 2 -1 58 -4 126 -6 l123 -3 24 45 c53 98 915 1839 915 1849 l0 11 -158 0 -159 0 -46 -97z"/>
<path d="M10836 1685 c-81 -153 -198 -370 -258 -484 -183 -340 -497 -929 -556 -1039 l-54 -103 7 -7 7 -7 120 0 120 0 400 700 c586 1026 681 1195 676 1200 -3 3 -74 8 -159 12 l-154 6 -149 -278z"/>
<path d="M11607 1878 c-24 -40 -236 -390 -472 -778 -235 -388 -472 -778 -527 -867 -54 -89 -101 -169 -104 -178 l-6 -15 73 0 c41 0 97 -3 125 -6 l51 -6 105 163 c58 90 282 439 498 774 216 336 429 666 473 735 44 69 97 150 118 181 l38 57 -6 6 -6 6 -158 0 -158 0 -44 -72z"/>
</g>


</svg>