<!DOCTYPE svg PUBLIC "-//W3C//DTD SVG 20010904//EN" "http://www.w3.org/TR/2001/REC-SVG-20010904/DTD/svg10.dtd">
<svg version="1.0" xmlns="http://www.w3.org/2000/svg" width="820px" height="761px" viewBox="0 0 8200 7610" preserveAspectRatio="xMidYMid meet">
<g id="layer101" fill="#c8d5a9" stroke="none">
 <path d="M3255 7177 c-22 -13 -62 -38 -88 -55 -43 -27 -54 -30 -101 -25 -45 5 -62 1 -128 -30 -78 -36 -257 -147 -278 -172 -32 -39 107 -319 258 -518 93 -124 114 -171 120 -268 6 -95 -13 -156 -67 -221 -21 -26 -67 -94 -101 -150 -68 -110 -130 -195 -158 -213 -9 -6 -39 -17 -67 -24 -95 -24 -172 -87 -260 -216 -135 -196 -229 -282 -341 -311 -166 -43 -221 -159 -165 -350 30 -100 25 -127 -29 -154 -80 -41 -132 -164 -133 -315 -1 -115 25 -176 106 -256 l57 -56 0 -82 c0 -67 5 -92 25 -136 34 -71 106 -150 172 -187 80 -45 90 -63 98 -175 7 -88 6 -101 -13 -138 -12 -22 -30 -65 -41 -95 -22 -60 -34 -70 -116 -101 -73 -27 -95 -56 -95 -128 0 -91 8 -97 166 -127 21 -4 136 -92 209 -161 62 -59 79 -140 53 -264 -9 -45 -9 -66 1 -100 17 -56 69 -109 107 -109 68 0 208 -94 266 -178 31 -44 32 -51 30 -130 -3 -84 -2 -84 31 -116 19 -17 73 -53 121 -79 48 -27 115 -68 149 -91 92 -64 154 -99 216 -121 68 -25 81 -47 81 -135 0 -115 22 -156 91 -173 41 -10 85 -89 97 -172 18 -122 59 -187 157 -250 33 -21 61 -49 76 -76 18 -33 38 -50 78 -70 109 -55 179 -47 263 28 30 28 62 44 106 56 35 10 87 29 115 43 49 26 160 51 263 61 38 3 73 -2 135 -22 49 -16 128 -31 191 -37 123 -11 146 -4 199 61 38 48 83 71 137 71 22 0 61 10 88 22 40 18 68 22 159 22 61 1 143 -6 182 -14 70 -14 75 -13 118 8 31 15 51 33 62 57 l17 35 74 0 c74 0 75 0 113 39 43 46 79 133 79 194 0 23 -9 65 -19 92 -10 28 -22 77 -26 110 -5 33 -18 91 -31 129 -28 80 -50 223 -40 260 5 20 22 33 69 55 91 43 169 122 197 200 18 48 41 82 96 142 40 44 77 94 82 112 5 18 5 64 1 102 -4 39 -8 127 -8 196 -1 79 -6 144 -15 174 -15 48 -59 105 -82 105 -24 0 -37 33 -53 144 -10 63 -25 126 -35 141 -19 28 -172 131 -211 141 -31 8 -31 13 -5 169 l19 119 -57 62 c-31 34 -70 81 -87 105 -16 23 -45 50 -63 60 -24 12 -42 35 -63 79 -33 70 -36 107 -13 174 13 38 14 53 5 73 -11 24 -15 25 -79 22 l-67 -4 0 116 c0 132 7 149 78 198 60 41 70 70 65 188 -4 88 -7 104 -37 155 -17 31 -36 80 -42 110 -5 29 -12 65 -15 79 -4 19 6 49 35 105 48 91 53 144 21 248 -17 52 -29 72 -60 98 -27 21 -43 44 -49 67 -27 114 -32 144 -41 218 -10 94 -27 133 -71 165 -45 33 -50 56 -42 185 l6 116 48 49 c81 84 118 192 76 223 -9 7 -42 15 -73 19 -31 3 -68 13 -84 21 -33 17 -151 149 -168 188 -12 29 -63 57 -103 57 -12 0 -37 12 -56 26 -61 47 -133 71 -225 78 -118 9 -147 2 -226 -55 -58 -43 -73 -49 -117 -50 -27 0 -71 -4 -97 -8 -68 -11 -72 -6 -59 77 6 39 11 73 11 77 0 3 34 21 75 40 41 18 94 47 117 63 24 16 54 33 68 37 36 11 58 33 65 66 17 77 -14 87 -233 69 -122 -10 -198 -10 -341 -1 -216 13 -228 10 -249 -59 -17 -58 -17 -111 1 -147 16 -32 8 -74 -19 -104 -15 -17 -26 -18 -94 -13 -103 9 -136 -3 -184 -67 -21 -29 -36 -59 -34 -71 3 -20 13 -25 178 -82 126 -44 149 -49 203 -47 l58 2 -7 -28 c-3 -15 -14 -44 -23 -63 -15 -33 -19 -35 -80 -42 -56 -6 -76 -3 -140 19 -46 16 -96 26 -126 25 -46 -1 -52 2 -90 41 -54 56 -143 184 -194 277 -47 87 -50 122 -26 308 24 184 -1 226 -100 169z"/>
 </g>
<g id="layer102" fill="#afc280" stroke="none">
 <path d="M3255 7177 c-22 -13 -62 -38 -88 -55 -43 -27 -54 -30 -101 -25 -45 5 -62 1 -128 -30 -78 -36 -257 -147 -278 -172 -32 -39 107 -319 258 -518 93 -124 114 -171 120 -268 6 -95 -13 -156 -67 -221 -21 -26 -67 -94 -101 -150 -68 -110 -130 -195 -158 -213 -9 -6 -39 -17 -67 -24 -95 -24 -172 -87 -260 -216 -135 -196 -229 -282 -341 -311 -166 -43 -221 -159 -165 -350 30 -100 25 -127 -29 -154 -80 -41 -132 -164 -133 -315 -1 -115 25 -176 106 -256 l57 -56 0 -82 c0 -67 5 -92 25 -136 34 -71 106 -150 172 -187 80 -45 90 -63 98 -175 7 -88 6 -101 -13 -138 -12 -22 -30 -65 -41 -95 -22 -60 -34 -70 -116 -101 -74 -27 -95 -56 -95 -129 0 -80 16 -97 108 -114 40 -8 81 -20 91 -27 59 -43 150 -119 181 -150 58 -57 73 -140 48 -260 -9 -45 -9 -66 1 -100 17 -56 69 -109 107 -109 68 0 208 -94 266 -178 31 -44 32 -51 30 -130 -3 -84 -2 -84 31 -116 19 -17 73 -53 121 -79 48 -27 115 -68 149 -91 92 -64 154 -99 216 -121 68 -25 81 -47 81 -135 0 -115 22 -156 91 -173 41 -10 85 -89 97 -172 18 -122 59 -187 157 -250 33 -21 61 -49 76 -76 18 -33 38 -50 78 -70 109 -55 179 -47 263 28 30 28 62 44 106 56 35 10 87 29 115 43 49 26 160 51 263 61 38 3 73 -2 135 -22 49 -16 128 -31 191 -37 123 -11 146 -4 199 61 38 48 83 71 137 71 22 0 61 10 88 22 40 18 68 22 159 22 61 1 143 -6 182 -14 70 -14 75 -13 118 8 31 15 51 33 62 57 l17 35 74 0 c74 0 75 0 113 39 43 46 79 133 79 194 0 23 -9 65 -19 92 -10 28 -22 77 -26 110 -5 33 -18 91 -31 129 -28 80 -50 223 -40 260 5 20 22 33 69 55 91 43 169 122 197 200 18 48 41 82 96 142 40 44 77 94 82 112 5 18 5 64 1 102 -4 39 -8 127 -8 196 -1 79 -6 144 -15 174 -15 48 -59 105 -82 105 -24 0 -37 33 -53 144 -10 63 -25 126 -35 141 -19 28 -172 131 -211 141 -31 8 -31 13 -5 169 l19 119 -57 62 c-31 34 -70 81 -87 105 -16 23 -45 50 -63 60 -24 12 -42 35 -63 79 -33 70 -36 107 -13 174 13 38 14 53 5 73 -11 24 -15 25 -79 22 l-67 -4 0 116 c0 132 7 149 78 198 60 41 70 70 65 188 -4 88 -7 104 -37 155 -17 31 -36 80 -42 110 -5 29 -12 65 -15 79 -4 19 6 49 35 105 48 91 53 144 21 248 -17 52 -29 72 -60 98 -27 21 -43 44 -49 67 -27 114 -32 144 -41 218 -10 94 -27 133 -71 165 -45 33 -50 56 -42 185 l6 116 48 49 c81 84 118 192 76 223 -9 7 -42 15 -73 19 -31 3 -68 13 -84 21 -33 17 -151 149 -168 188 -12 29 -63 57 -103 57 -12 0 -37 12 -56 26 -61 47 -133 71 -225 78 -118 9 -147 2 -226 -55 -58 -43 -73 -49 -117 -50 -27 0 -71 -4 -97 -8 -68 -11 -72 -6 -59 77 6 39 11 73 11 77 0 3 34 21 75 40 41 18 94 47 117 63 24 16 54 33 68 37 36 11 58 33 65 66 17 77 -14 87 -233 69 -122 -10 -198 -10 -341 -1 -216 13 -228 10 -249 -59 -17 -58 -17 -111 1 -147 16 -32 8 -74 -19 -104 -15 -17 -26 -18 -94 -13 -103 9 -136 -3 -184 -67 -21 -29 -36 -59 -34 -71 3 -20 13 -25 178 -82 126 -44 149 -49 203 -47 l58 2 -7 -28 c-3 -15 -14 -44 -23 -63 -15 -33 -19 -35 -80 -42 -56 -6 -76 -3 -140 19 -46 16 -96 26 -126 25 -46 -1 -52 2 -90 41 -54 56 -143 184 -194 277 -47 87 -50 122 -26 308 24 184 -1 226 -100 169z m68 -30 c6 -15 3 -63 -12 -177 -22 -167 -18 -194 42 -299 65 -114 177 -267 219 -300 23 -19 44 -25 87 -26 31 -1 90 -14 133 -28 64 -23 87 -26 135 -21 102 12 107 17 151 152 20 61 -1 77 -78 61 -39 -8 -56 -7 -82 4 -18 9 -49 18 -68 21 -20 3 -67 19 -105 36 -39 16 -78 30 -87 30 -26 0 -22 10 22 59 l40 43 93 -6 c106 -6 129 3 153 60 18 43 18 88 -1 124 -12 24 -13 37 -3 80 6 28 19 55 27 60 9 4 93 3 186 -2 128 -8 215 -7 353 2 100 7 185 10 189 6 4 -3 2 -19 -3 -33 -6 -19 -19 -29 -40 -34 -18 -3 -46 -17 -64 -30 -18 -13 -74 -44 -124 -69 l-91 -45 -7 -45 c-29 -186 -30 -185 131 -175 120 8 152 17 186 55 74 84 268 81 397 -5 37 -25 79 -45 92 -45 38 0 76 -21 76 -42 0 -27 135 -169 185 -195 23 -13 63 -24 89 -27 26 -2 52 -8 58 -14 19 -19 -19 -97 -81 -165 l-58 -64 -6 -119 c-8 -145 1 -186 48 -217 40 -25 65 -79 65 -138 0 -23 6 -67 14 -98 7 -31 19 -82 25 -113 10 -47 20 -65 57 -100 50 -48 74 -109 74 -190 0 -37 -10 -67 -41 -129 -29 -58 -40 -88 -36 -107 4 -15 11 -51 16 -81 6 -30 26 -87 45 -126 31 -62 36 -82 38 -156 3 -96 0 -103 -69 -150 -62 -43 -72 -70 -80 -212 -6 -118 -5 -125 16 -146 23 -23 40 -26 91 -11 48 14 56 1 36 -56 -21 -63 -20 -111 4 -159 11 -21 25 -54 31 -73 8 -24 21 -38 44 -48 18 -7 45 -29 61 -49 16 -20 55 -65 87 -101 39 -43 57 -71 53 -81 -4 -9 -11 -48 -17 -87 -26 -179 -25 -191 24 -204 52 -15 204 -119 210 -144 3 -13 13 -69 21 -126 18 -121 26 -137 71 -156 60 -25 74 -72 76 -254 1 -76 5 -165 10 -200 11 -78 5 -92 -88 -194 -51 -56 -73 -89 -86 -131 -14 -44 -29 -66 -75 -108 -31 -29 -80 -63 -108 -76 -58 -26 -79 -46 -88 -85 -10 -43 10 -188 37 -264 13 -38 27 -95 31 -127 4 -32 16 -84 27 -114 10 -31 19 -74 19 -95 0 -50 -51 -163 -81 -179 -13 -6 -55 -13 -93 -13 l-70 -1 -27 -40 c-42 -63 -66 -72 -147 -55 -97 21 -285 18 -342 -4 -49 -19 -62 -22 -132 -31 -41 -5 -58 -15 -118 -71 l-71 -65 -92 7 c-58 4 -126 17 -186 36 -75 24 -105 29 -155 25 -106 -9 -226 -37 -286 -68 -32 -16 -84 -34 -116 -41 -47 -9 -68 -21 -111 -60 -63 -57 -86 -64 -153 -48 -65 16 -109 46 -136 94 -14 24 -44 52 -82 76 -34 22 -73 57 -88 79 -27 42 -54 132 -54 186 0 17 -16 55 -36 88 -30 46 -45 59 -76 69 -22 6 -46 21 -53 32 -7 12 -15 63 -18 113 -6 114 -18 135 -89 158 -60 20 -87 35 -208 115 -47 31 -123 77 -170 102 -124 67 -134 81 -132 173 4 106 -34 168 -161 261 -56 42 -78 52 -164 74 -36 9 -47 18 -64 52 -20 40 -21 47 -9 124 7 45 10 105 7 134 -8 69 -52 145 -103 181 -23 15 -66 49 -95 74 -69 60 -92 71 -158 78 -30 4 -61 12 -68 20 -19 19 -21 104 -3 120 8 8 45 26 82 41 79 33 93 46 118 119 11 30 29 71 41 92 20 33 21 45 15 137 -10 137 -20 158 -103 211 -77 50 -142 116 -172 176 -16 30 -21 59 -21 116 0 90 -20 138 -78 184 -77 60 -107 182 -78 312 23 99 57 157 114 194 66 42 73 74 38 191 -14 49 -26 98 -26 109 0 81 64 165 140 185 134 35 238 120 368 304 108 154 182 219 260 232 82 13 125 57 237 239 38 61 87 135 111 165 52 68 74 131 74 216 0 109 -40 202 -141 324 -78 95 -228 371 -241 444 -4 24 105 103 222 162 64 33 85 39 146 40 62 1 77 5 115 31 47 33 120 73 130 73 4 0 9 -6 12 -13z"/>
 </g>

</svg>